<?xml version="1.0" encoding="UTF-8"?>
<svg xmlns="http://www.w3.org/2000/svg" version="1.1" viewBox="0 0 425.2 425.2" width="100px">
  <defs>
    <style>
      .cls-1 {
        width: 100%;
        height: 100%;
      }
    </style>
  </defs>
  <!-- Generator: Adobe Illustrator 28.7.1, SVG Export Plug-In . SVG Version: 1.2.0 Build 142)  -->
  <g>
    <g id="Layer_1">
      <path class="cls-1" d="M215.14,6.62C100.11,6.62,6.86,99.87,6.86,214.9s93.25,208.28,208.28,208.28,208.28-93.25,208.28-208.28S330.17,6.62,215.14,6.62ZM194.84,93.11c0-11.21,9.08-20.3,20.3-20.3s20.3,9.08,20.3,20.3v81.19c0,11.21-9.08,20.3-20.3,20.3s-20.3-9.08-20.3-20.3v-81.19ZM308.43,318.33c-51.53,51.53-135.05,51.53-186.58,0-51.53-51.53-51.53-135.05,0-186.58,7.92-7.92,20.78-7.92,28.69,0s7.94,20.78,0,28.69c-35.65,35.68-35.65,93.52,0,129.19,35.68,35.67,93.52,35.67,129.19,0,35.65-35.68,35.65-93.52,0-129.19-7.94-7.92-7.94-20.75,0-28.69,7.92-7.92,20.78-7.92,28.69,0,51.53,51.53,51.53,135.05,0,186.58Z"/>
    </g>
  </g>
</svg>